<svg id="Layer_1" data-name="Layer 1" xmlns="http://www.w3.org/2000/svg" viewBox="0 0 830 640"><defs><style>.cls-1{fill:#006c30;}.cls-2{fill:#000004;opacity:0.42;}.cls-3{fill:#f7f7f6;}.cls-4{font-size:180px;fill:#fff;font-family:BerlinSansFB-Reg, Berlin Sans FB;letter-spacing:0.01em;}</style></defs><ellipse class="cls-1" cx="415" cy="320" rx="415" ry="320"/><path class="cls-2" d="M100.73,361.68l-8.61-44.39L106,265.61l27.83-40.42L163.67,200l45.72-20.54,35.12-6,41.08,5.3,33.79,13.25,39.09,35.12L383,266.93l10.6,58.31v32.47l-7.95,28.49-17.89,29.15-21.2,21.86-39.76,25.85L267,475.64S225.29,471,223.31,471s-45.06-17.23-45.06-17.23L144.46,416l-6.63-15.24q-2.31-11.92-4.63-23.85a101.59,101.59,0,0,1,9.93-45.72c5-10.41,17.33-31.18,41.75-43.73,11.08-5.69,25.91-13.31,42.4-8,1.17.38,21.95,7.5,25.84,26.5,2.46,12-2.16,27.05-9.27,28.5-8.71,1.76-13.3-18.43-27.83-19.88-11.57-1.16-25.72,9.94-27.83,23.19-2.74,17.2,16.07,30.07,27.17,34.45,26.27,10.37,51.66-10.14,53-11.26,5.87-6.79,19.34-24.32,18.55-46.38-.36-10.26-3.78-20.6-5.3-25.18-2.39-7.24-4.62-14-9.94-21.2A58,58,0,0,0,251.13,251l-59-7.29-55.66,37.11Q118.62,321.26,100.73,361.68Z" transform="translate(-6.88 -8.2)"/><path class="cls-3" d="M332,428.12c51.68-43.36,60.21-132.42,17.54-183.27a6.62,6.62,0,0,0-10.13,8.51c41.26,49.17,25,130.27-15.91,164.63a6.61,6.61,0,1,0,8.5,10.13Z" transform="translate(-6.88 -8.2)"/><path class="cls-3" d="M102.37,343.7c5.75-30.45,23.45-62.15,47.19-82.07,46-38.6,101.19-28.68,128,3.22a74.25,74.25,0,0,1,15.6,63.22c-3.3,15.91-11.52,30.35-22.62,39.66-29.78,25-60,15.9-76.84-4.15-11.14-13.27-15.7-33.8.37-47.27,14-11.72,31.74-8.65,46,8.35L242,327c2.87-7.36,7-20.4-.72-29.57-18.92-22.55-47.81-11.93-66.6,3.83-41.14,34.52-41.27,92.58-15.66,123.09,38.26,45.6,113.89,64.73,178.69,10.36,60.34-50.63,68.23-140.9,17.61-201.24-53.17-63.36-138.9-69.79-203.85-15.29C103.32,258.53,94.77,311.49,102.37,343.7ZM238.65,480a135.59,135.59,0,0,1-89.71-47.23C112,388.76,128.5,322.68,166.31,291c25.32-21.25,61.59-30.25,85.17-2.15,18.7,22.28-1.92,52.17-2.83,53.45a4.94,4.94,0,0,1-4.46,2.22c-2.05.09-2.69-1.9-4-3.47l-8.11-9.66c-5.46-6.51-17.57-15-28.45-5.82-10.45,8.77-5.38,23.18,0,29.65,11.67,13.9,33.92,22.89,58.26,2.47,8.86-7.44,15.49-19.19,18.2-32.24a61.14,61.14,0,0,0-12.77-52c-22.58-26.91-69.64-34.87-109.3-1.6-27.33,22.94-46.38,64.83-44.31,97.44a6.62,6.62,0,0,1-11.67,4.68C79.46,346.94,73.57,266.21,142.93,208c70.83-59.43,164.4-52.31,222.5,16.93,55.31,65.92,46.68,164.56-19.24,219.88C314.62,471.31,276.45,483.78,238.65,480Z" transform="translate(-6.88 -8.2)"/><text class="cls-4" transform="translate(411.86 380.83)">ADE</text></svg>